<svg xmlns="http://www.w3.org/2000/svg" xmlns:xlink="http://www.w3.org/1999/xlink" contentStyleType="text/css" data-diagram-type="DESCRIPTION" height="762px" preserveAspectRatio="none" style="width:505px;height:762px;background:#FFFFFF;" version="1.1" viewBox="0 0 505 762" width="505px" zoomAndPan="magnify"><title>Deployment View - Gallery Search System</title><defs/><g><g class="title" data-source-line="5"><text fill="#000000" font-family="sans-serif" font-size="14" font-weight="bold" lengthAdjust="spacing" textLength="332.2402" x="79.4872" y="22.9951">Deployment View - Gallery Search System</text></g><!--cluster GCP: us-central1--><g class="cluster" data-entity="GCP: us-central1" data-source-line="14" data-uid="ent0004" id="cluster_GCP: us-central1"><path d="M32.2629,291.9323 C41.4102,275.9886 55.3145,277.8979 63.4308,292.9684 C72.662,275.4353 88.6407,276.4979 97.5165,293.321 C102.9211,276.2479 116.5634,277.0893 126.7149,288.4457 C134.8124,274.1624 149.809,276.2294 157.0176,289.4258 C165.4729,273.5169 177.181,271.7373 188.3309,286.6918 C198.8186,268.467 212.3041,271.546 223.8222,285.5575 C231.5888,272.2502 243.0071,268.7668 252.4775,283.837 C262.9151,270.5176 272.1631,269.5587 281.3194,285.1167 C292.2523,268.857 308.7697,272.3234 317.4925,287.6479 C326.7894,274.6575 340.2021,274.1944 348.4609,288.8125 C355.9749,274.8657 366.9987,275.5253 375.1801,288.141 C388.9574,274.2543 401.3798,276.1172 410.7319,293.218 C420.292,277.764 433.4076,278.9837 441.7524,294.4377 C454.8916,281.2515 464.6254,283.8176 474.505,298.2969 C476.543,296.149 478.4659,296.2674 479.9056,298.9639 C495.3342,310.2401 494.2647,320.7127 479.2513,331.3744 C492.677,343.6003 489.7772,352.5798 475.6041,361.4598 C489.8725,368.9248 490.0613,381.7521 475.9594,389.5756 C492.3909,399.6988 493.6653,411.1814 478.1534,423.378 C492.2929,430.05 490.1336,438.8775 481.14,448.3195 C498.2147,457.8287 497.6115,470.7197 481.9382,481.0281 C495.2018,491.4645 494.4191,504.1702 477.4488,509.9065 C492.7012,517.5028 491.025,528.9466 479.628,538.569 C495.9567,547.4789 493.8108,562.238 479.6367,571.156 C492.6682,578.8234 493.4153,590.9773 480.189,599.1625 C495.2041,610.2959 494.2029,624.8118 477.7417,633.7159 C490.8317,641.1778 492.2123,649.1902 479.5958,658.5698 C493.9865,669.1907 496.4017,682.6634 478.338,692.0656 C491.7416,708.3024 487.8783,720.071 467.505,725.2969 C470.8597,724.4693 472.9587,726.579 471.7674,729.9319 C460.5024,743.054 449.7654,745.3008 440.2742,728.0903 C432.0695,742.6158 417.0484,743.6038 406.8139,730.5532 C399.981,745.4047 388.9012,745.4468 379.0153,733.7501 C369.2048,748.7716 357.0393,749.0395 348.7301,732.3178 C341.8225,751.1836 329.4774,748.8687 317.2668,737.9128 C308.1305,752.4345 292.189,752.8964 283.9505,736.9317 C275.2947,750.0216 263.5063,749.1814 255.2204,736.5191 C245.9629,752.1569 230.4217,755.0505 220.4616,737.2494 C209.9683,753.3502 198.6055,754.7881 188.2845,737.0854 C178.4519,751.337 163.2934,748.142 156.7895,733.4618 C147.3592,750.0007 132.5954,746.1976 125.5858,731.076 C115.3318,745.3344 105.2058,744.2534 95.6704,730.3137 C84.6026,743.227 74.7885,745.7174 64.1214,729.8742 C47.2819,744.8154 30.4736,740.5546 24.505,718.2969 C27.1786,717.2611 28.9435,718.4931 28.9744,721.3394 C14.6348,714.0623 11.4969,704.6706 24.8,693.2809 C11.7897,683.5343 10.0916,672.9012 24.4406,662.8317 C9.5716,654.323 8.0405,637.8293 24.4179,629.2996 C13.9477,620.9779 11.9765,611.6578 24.5129,603.4205 C7.8519,593.7705 10.7481,580.2568 25.7559,571.8539 C10.3409,563.9408 6.374,552.6531 21.409,540.5162 C6,530.2585 7.307,518.789 22.7701,509.9039 C11.1716,501.3903 8.2126,489.7814 22.9398,481.4246 C11.7795,472.4154 12.5326,461.4153 24.7856,453.9807 C10.2429,444.0436 11.8811,432.6774 25.4753,423.3743 C10.0904,411.7158 13.6869,401.0208 27.8288,391.5456 C10.3687,383.6693 9.0659,371.8591 23.403,359.5803 C11.2326,350.8323 12.631,337.2578 25.2985,330.1072 C6.5613,313.3697 13.0616,302.0885 31.505,291.2969 C32.0481,291.1521 32.3156,291.3664 32.2629,291.9323" fill="none" style="stroke:#181818;stroke-width:1;"/><text fill="#000000" font-family="sans-serif" font-size="14" font-weight="bold" lengthAdjust="spacing" textLength="131.9541" x="183.528" y="309.292">GCP: us-central1</text></g><!--cluster GKE--><g class="cluster" data-entity="GKE" data-source-line="16" data-uid="ent0005" id="cluster_GKE"><polygon fill="none" points="40.505,336.2969,50.505,326.2969,458.505,326.2969,458.505,598.2969,448.505,608.2969,40.505,608.2969,40.505,336.2969" style="stroke:#181818;stroke-width:1;"/><line style="stroke:#181818;stroke-width:1;" x1="448.505" x2="458.505" y1="336.2969" y2="326.2969"/><line style="stroke:#181818;stroke-width:1;" x1="40.505" x2="448.505" y1="336.2969" y2="336.2969"/><line style="stroke:#181818;stroke-width:1;" x1="448.505" x2="448.505" y1="336.2969" y2="608.2969"/><text fill="#000000" font-family="sans-serif" font-size="14" font-weight="bold" lengthAdjust="spacing" textLength="93.2422" x="198.8839" y="352.292">GKE Cluster</text></g><!--cluster k8s node #1--><g class="cluster" data-entity="k8s node #1" data-source-line="18" data-uid="ent0006" id="cluster_k8s node #1"><polygon fill="none" points="64.505,475.2969,74.505,465.2969,237.505,465.2969,237.505,574.2969,227.505,584.2969,64.505,584.2969,64.505,475.2969" style="stroke:#181818;stroke-width:1;"/><line style="stroke:#181818;stroke-width:1;" x1="227.505" x2="237.505" y1="475.2969" y2="465.2969"/><line style="stroke:#181818;stroke-width:1;" x1="64.505" x2="227.505" y1="475.2969" y2="475.2969"/><line style="stroke:#181818;stroke-width:1;" x1="227.505" x2="227.505" y1="475.2969" y2="584.2969"/><text fill="#000000" font-family="sans-serif" font-size="14" font-weight="bold" lengthAdjust="spacing" textLength="97.7061" x="98.152" y="491.292">k8s node #1</text></g><!--cluster k8s node #2--><g class="cluster" data-entity="k8s node #2" data-source-line="22" data-uid="ent0008" id="cluster_k8s node #2"><polygon fill="none" points="261.505,475.2969,271.505,465.2969,434.505,465.2969,434.505,574.2969,424.505,584.2969,261.505,584.2969,261.505,475.2969" style="stroke:#181818;stroke-width:1;"/><line style="stroke:#181818;stroke-width:1;" x1="424.505" x2="434.505" y1="475.2969" y2="465.2969"/><line style="stroke:#181818;stroke-width:1;" x1="261.505" x2="424.505" y1="475.2969" y2="475.2969"/><line style="stroke:#181818;stroke-width:1;" x1="424.505" x2="424.505" y1="475.2969" y2="584.2969"/><text fill="#000000" font-family="sans-serif" font-size="14" font-weight="bold" lengthAdjust="spacing" textLength="97.7061" x="295.152" y="491.292">k8s node #2</text></g><!--entity DB--><g class="entity" data-entity="DB" data-source-line="29" data-uid="ent0011" id="entity_DB"><path d="M33.505,681.7969 C33.505,671.7969 96.7399,671.7969 96.7399,671.7969 C96.7399,671.7969 159.9747,671.7969 159.9747,681.7969 L159.9747,707.0938 C159.9747,717.0938 96.7399,717.0938 96.7399,717.0938 C96.7399,717.0938 33.505,717.0938 33.505,707.0938 L33.505,681.7969" fill="#F1F1F1" style="stroke:#181818;stroke-width:0.5;"/><path d="M33.505,681.7969 C33.505,691.7969 96.7399,691.7969 96.7399,691.7969 C96.7399,691.7969 159.9747,691.7969 159.9747,681.7969" fill="none" style="stroke:#181818;stroke-width:0.5;"/><text fill="#000000" font-family="sans-serif" font-size="14" lengthAdjust="spacing" textLength="106.4697" x="43.505" y="708.792">Cloud Firestore</text></g><!--entity Auth--><g class="entity" data-entity="Auth" data-source-line="30" data-uid="ent0012" id="entity_Auth"><path d="M342.0258,681.088 C344.5538,674.3491 350.2275,673.8993 354.4371,679.3801 C357.4199,674.9709 362.4375,674.5953 364.6582,680.1611 C367.0546,674.0938 372.4524,674.0315 376.3462,678.5 C379.5469,671.7941 384.937,671.6842 388.5615,678.1057 C391.2361,673.828 394.1285,673.3606 397.7052,677.0734 C401.5362,670.5042 405.5056,672.1213 409.6042,676.79 C414.5266,671.8932 418.7027,673.305 421.2182,679.3457 C424.3069,673.9532 428.1221,674.3316 431.3862,679.1714 C435.6748,674.6699 439.9827,674.1134 443.0033,680.5216 C446.3259,674.4323 450.3151,674.4875 454.0313,680.1523 C460.8958,683.5651 463.3393,691.1827 455.1767,695.7024 C462.8726,700.5121 462.4034,706.2979 454.989,710.9213 C452.0583,717.0238 447.4481,716.7624 444.013,711.4043 C439.7681,717.7118 435.7906,716.0603 432.1167,710.8163 C428.8519,717.062 424.4396,717.6287 419.743,712.3542 C416.8453,716.5692 412.7696,716.6364 409.7328,712.5212 C407.916,718.0607 402.9392,718.0385 399.5334,714.2607 C394.6798,720.3495 390.6429,719.4532 387.0955,712.9686 C382.4465,718.7947 378.4377,717.9407 375.516,711.3568 C373.112,716.6531 368.4435,716.7569 365.6764,711.7018 C362.4658,717.4657 356.4344,717.4029 353.6182,711.301 C349.8042,715.0044 345.7409,714.4192 343.2482,709.6784 C336.3001,706.8797 334.0744,701.5046 339.5383,695.466 C333.4708,690.008 334.0585,684.1178 342.0258,681.088" fill="#F1F1F1" style="stroke:#181818;stroke-width:0.5;"/><text fill="#000000" font-family="sans-serif" font-size="14" lengthAdjust="spacing" textLength="96.9473" x="349.005" y="699.292">Firebase Auth</text></g><!--entity Tasks--><g class="entity" data-entity="Tasks" data-source-line="31" data-uid="ent0013" id="entity_Tasks"><path d="M199.505,681.2969 L293.7716,681.2969 C298.7716,681.2969 298.7716,694.4453 298.7716,694.4453 C298.7716,694.4453 298.7716,707.5938 293.7716,707.5938 L199.505,707.5938 C194.505,707.5938 194.505,694.4453 194.505,694.4453 C194.505,694.4453 194.505,681.2969 199.505,681.2969" fill="#F1F1F1" style="stroke:#181818;stroke-width:0.5;"/><path d="M293.7716,681.2969 C288.7716,681.2969 288.7716,694.4453 288.7716,694.4453 C288.7716,707.5938 293.7716,707.5938 293.7716,707.5938" fill="none" style="stroke:#181818;stroke-width:0.5;"/><text fill="#000000" font-family="sans-serif" font-size="14" lengthAdjust="spacing" textLength="84.2666" x="199.505" y="699.292">Cloud Tasks</text></g><!--entity ILB--><g class="entity" data-entity="ILB" data-source-line="26" data-uid="ent0010" id="entity_ILB"><rect fill="#F1F1F1" height="36.2969" rx="2.5" ry="2.5" style="stroke:#181818;stroke-width:0.5;" width="96.0566" x="178.505" y="366.2969"/><text fill="#000000" font-family="sans-serif" font-size="14" lengthAdjust="spacing" textLength="76.0566" x="188.505" y="389.292">Internal LB</text></g><!--entity API1--><g class="entity" data-entity="API1" data-source-line="19" data-uid="ent0007" id="entity_API1"><rect fill="#F1F1F1" height="62.5938" rx="2.5" ry="2.5" style="stroke:#181818;stroke-width:0.5;" width="117.2598" x="92.005" y="505.2969"/><rect fill="#F1F1F1" height="10" style="stroke:#181818;stroke-width:0.5;" width="15" x="189.2648" y="510.2969"/><rect fill="#F1F1F1" height="2" style="stroke:#181818;stroke-width:0.5;" width="4" x="187.2648" y="512.2969"/><rect fill="#F1F1F1" height="2" style="stroke:#181818;stroke-width:0.5;" width="4" x="187.2648" y="516.2969"/><text fill="#000000" font-family="sans-serif" font-size="14" lengthAdjust="spacing" textLength="76.5557" x="107.005" y="538.292">api-service</text><text fill="#000000" font-family="sans-serif" font-size="14" lengthAdjust="spacing" textLength="77.2598" x="107.005" y="554.5889">(container)</text></g><!--entity API2--><g class="entity" data-entity="API2" data-source-line="23" data-uid="ent0009" id="entity_API2"><rect fill="#F1F1F1" height="62.5938" rx="2.5" ry="2.5" style="stroke:#181818;stroke-width:0.5;" width="117.2598" x="283.005" y="505.2969"/><rect fill="#F1F1F1" height="10" style="stroke:#181818;stroke-width:0.5;" width="15" x="380.2648" y="510.2969"/><rect fill="#F1F1F1" height="2" style="stroke:#181818;stroke-width:0.5;" width="4" x="378.2648" y="512.2969"/><rect fill="#F1F1F1" height="2" style="stroke:#181818;stroke-width:0.5;" width="4" x="378.2648" y="516.2969"/><text fill="#000000" font-family="sans-serif" font-size="14" lengthAdjust="spacing" textLength="76.5557" x="298.005" y="538.292">api-service</text><text fill="#000000" font-family="sans-serif" font-size="14" lengthAdjust="spacing" textLength="77.2598" x="298.005" y="554.5889">(container)</text></g><!--entity Mobile--><g class="entity" data-entity="Mobile" data-source-line="8" data-uid="ent0002" id="entity_Mobile"><rect fill="#F1F1F1" height="52.5938" rx="2.5" ry="2.5" style="stroke:#181818;stroke-width:0.5;" width="122.7715" x="165.005" y="44.2969"/><text fill="#000000" font-family="sans-serif" font-size="14" lengthAdjust="spacing" textLength="84.2393" x="175.005" y="67.292">User Device</text><text fill="#000000" font-family="sans-serif" font-size="14" lengthAdjust="spacing" textLength="102.7715" x="175.005" y="83.5889">(Android / iOS)</text></g><!--entity CDN--><g class="entity" data-entity="CDN" data-source-line="11" data-uid="ent0003" id="entity_CDN"><path d="M183.7008,183.5216 C185.4196,178.8761 189.8059,177.1641 193.3005,181.6559 C196.5631,176.4997 202.1157,175.7745 205.2265,181.8175 C209.2073,176.3026 212.7673,176.1392 216.8865,181.6714 C219.6934,176.0056 222.8229,176.1048 226.9461,180.333 C230.9767,173.9839 236.5377,175.107 239.3254,181.5371 C242.9373,176.7941 247.2076,176.7845 249.9589,182.4189 C254.6178,176.597 258.1893,177.4124 261.5076,183.6976 C264.4054,177.8553 268.8556,178.2897 272.2026,183.2529 C281.5684,182.4481 285.1359,190.2444 281.7384,197.8038 C287.5787,207.6988 284.7264,214.0585 272.8801,214.6574 C269.4765,218.918 264.8848,218.539 262.4749,213.5406 C259.4019,218.8071 254.6119,219.0043 250.8562,214.3393 C247.7255,219.1648 243.2674,219.0008 239.9767,214.5265 C236.5143,220.2539 231.0709,221.6864 226.864,215.3348 C223.9301,220.7068 219.4592,219.5149 216.8504,215.0053 C213.245,219.9844 208.326,221.0971 204.6565,215.0763 C201.2381,219.5198 196.8341,220.0368 194.308,214.1799 C191.3853,220.7584 185.5807,219.5024 182.2463,214.613 C173.4567,210.6301 172.1478,205.4472 178.1763,197.8636 C172.8559,190.7154 174.7787,185.1837 183.7008,183.5216" fill="#F1F1F1" style="stroke:#181818;stroke-width:0.5;"/><text fill="#000000" font-family="sans-serif" font-size="14" lengthAdjust="spacing" textLength="75.4688" x="189.005" y="202.292">Cloud CDN</text></g><!--link Mobile to CDN--><g class="link" data-entity-1="Mobile" data-entity-2="CDN" data-source-line="35" data-uid="lnk14" id="link_Mobile_CDN"><path d="M226.505,97.5969 C226.505,120.2469 226.505,146.8369 226.505,168.2769" fill="none" id="Mobile-to-CDN" style="stroke:#181818;stroke-width:1;"/><polygon fill="#181818" points="226.505,174.2769,230.505,165.2769,226.505,169.2769,222.505,165.2769,226.505,174.2769" style="stroke:#181818;stroke-width:1;"/><text fill="#000000" font-family="sans-serif" font-size="13" lengthAdjust="spacing" textLength="70.6938" x="227.505" y="140.3638">HTTPS 443</text></g><!--link CDN to ILB--><g class="link" data-entity-1="CDN" data-entity-2="ILB" data-source-line="36" data-uid="lnk15" id="link_CDN_ILB"><path d="M226.505,220.6169 C226.505,257.9969 226.505,326.4869 226.505,360.1169" fill="none" id="CDN-to-ILB" style="stroke:#181818;stroke-width:1;"/><polygon fill="#181818" points="226.505,366.1169,230.505,357.1169,226.505,361.1169,222.505,357.1169,226.505,366.1169" style="stroke:#181818;stroke-width:1;"/><text fill="#000000" font-family="sans-serif" font-size="13" lengthAdjust="spacing" textLength="70.6938" x="227.505" y="263.3638">HTTPS 443</text></g><!--link ILB to API1--><g class="link" data-entity-1="ILB" data-entity-2="API1" data-source-line="38" data-uid="lnk16" id="link_ILB_API1"><path d="M217.115,402.6369 C212.375,411.4769 206.565,422.4269 201.505,432.2969 C189.085,456.5469 178.0875,478.8403 168.0575,499.4803" fill="none" id="ILB-to-API1" style="stroke:#181818;stroke-width:1;"/><polygon fill="#181818" points="165.435,504.8769,172.9664,498.5304,167.6204,500.3798,165.771,495.0337,165.435,504.8769" style="stroke:#181818;stroke-width:1;"/><text fill="#000000" font-family="sans-serif" font-size="13" lengthAdjust="spacing" textLength="80.2852" x="202.505" y="445.3638">gRPC / REST</text></g><!--link ILB to API2--><g class="link" data-entity-1="ILB" data-entity-2="API2" data-source-line="39" data-uid="lnk17" id="link_ILB_API2"><path d="M253.875,402.5069 C265.235,410.5769 277.975,420.9269 287.505,432.2969 C305.865,454.1969 318.0121,477.8517 327.3521,499.6517" fill="none" id="ILB-to-API2" style="stroke:#181818;stroke-width:1;"/><polygon fill="#181818" points="329.715,505.1669,329.8474,495.3189,327.7459,500.5709,322.4939,498.4694,329.715,505.1669" style="stroke:#181818;stroke-width:1;"/><text fill="#000000" font-family="sans-serif" font-size="13" lengthAdjust="spacing" textLength="80.2852" x="299.505" y="445.3638">gRPC / REST</text></g><!--link API1 to DB--><g class="link" data-entity-1="API1" data-entity-2="DB" data-source-line="41" data-uid="lnk18" id="link_API1_DB"><path d="M132.405,568.4669 C123.635,584.5869 113.685,604.9669 107.505,624.2969 C102.555,639.7769 100.4214,651.9929 98.9014,665.8029" fill="none" id="API1-to-DB" style="stroke:#181818;stroke-width:1;"/><polygon fill="#181818" points="98.245,671.7669,103.2056,663.2585,98.792,666.7969,95.2537,662.3833,98.245,671.7669" style="stroke:#181818;stroke-width:1;"/></g><!--link API2 to DB--><g class="link" data-entity-1="API2" data-entity-2="DB" data-source-line="42" data-uid="lnk19" id="link_API2_DB"><path d="M298.045,568.4869 C278.155,583.8269 255.145,603.5369 237.505,624.2969 C231.825,630.9769 234.165,635.5969 227.505,641.2969 C208.185,657.8569 188.6032,667.5792 165.4432,675.6192" fill="none" id="API2-to-DB" style="stroke:#181818;stroke-width:1;"/><polygon fill="#181818" points="159.775,677.5869,169.5891,678.4141,164.4985,675.9471,166.9655,670.8565,159.775,677.5869" style="stroke:#181818;stroke-width:1;"/></g><!--link API1 to Auth--><g class="link" data-entity-1="API1" data-entity-2="Auth" data-source-line="44" data-uid="lnk20" id="link_API1_Auth"><path d="M190.705,568.3069 C219.705,589.7669 260.175,618.5869 297.505,641.2969 C314.895,651.8769 329.3071,659.7166 346.6471,668.5366" fill="none" id="API1-to-Auth" style="stroke:#181818;stroke-width:1;"/><polygon fill="#181818" points="351.995,671.2569,345.7866,663.6112,347.5384,668.99,342.1596,670.7418,351.995,671.2569" style="stroke:#181818;stroke-width:1;"/><text fill="#000000" font-family="sans-serif" font-size="13" lengthAdjust="spacing" textLength="65.6792" x="298.505" y="637.3638">JWT verify</text></g><!--link API2 to Auth--><g class="link" data-entity-1="API2" data-entity-2="Auth" data-source-line="45" data-uid="lnk21" id="link_API2_Auth"><path d="M352.565,568.5169 C363.475,598.7869 377.8221,638.6518 387.5021,665.5318" fill="none" id="API2-to-Auth" style="stroke:#181818;stroke-width:1;"/><polygon fill="#181818" points="389.535,671.1769,390.249,661.3539,387.8409,666.4726,382.7222,664.0645,389.535,671.1769" style="stroke:#181818;stroke-width:1;"/></g><!--link API1 to Tasks--><g class="link" data-entity-1="API1" data-entity-2="Tasks" data-source-line="47" data-uid="lnk22" id="link_API1_Tasks"><path d="M141.745,568.5469 C137.375,590.3869 135.445,619.5769 148.505,641.2969 C160.215,660.7769 176.3725,671.1479 196.4025,679.0379" fill="none" id="API1-to-Tasks" style="stroke:#181818;stroke-width:1;"/><polygon fill="#181818" points="201.985,681.2369,195.0772,674.2167,197.3329,679.4044,192.1452,681.66,201.985,681.2369" style="stroke:#181818;stroke-width:1;"/><text fill="#000000" font-family="sans-serif" font-size="13" lengthAdjust="spacing" textLength="80.9136" x="149.505" y="637.3638">enqueue job</text></g><!--link API2 to Tasks--><g class="link" data-entity-1="API2" data-entity-2="Tasks" data-source-line="48" data-uid="lnk23" id="link_API2_Tasks"><path d="M349.325,568.4969 C353.115,590.3169 354.425,619.4969 341.505,641.2969 C330.005,660.7069 313.9686,671.1005 294.2786,679.0505" fill="none" id="API2-to-Tasks" style="stroke:#181818;stroke-width:1;"/><polygon fill="#181818" points="288.715,681.2969,298.558,681.6364,293.3514,679.4249,295.5629,674.2183,288.715,681.2969" style="stroke:#181818;stroke-width:1;"/></g><!--SRC=[dL9DZzCm4BtxLup2eN2eq9Oze3qWjMa8XT1MJHQ4nCLDJ6kQsCLnTbMjLe8Jv_qf8Eq9iRyX_KUCxLHAiptXYp_UcpSpRzph7oq8ezbe646SV8e2ECP8kU5YInKje912fcib2mPQLGoQrOFwz_x7_WxsF_Tt- -_rt_gXN_-gx-i_zKDztufVqdIpKh8IcIzpgU1wpJKZH7ETCnYpRIvt1HCQFd1s3LWKpNEcTX0pgj8rnBjIiuAGNgTsFve4qwHJTLExOgccOeNotcN952QvuYdxB9uEHQOap-0vy5dyp0DQmdkvv3bxh1-Cmm1v_dZwA0T9SrbbuFbsGuOLmlrKbRFBCIo2S3BhwXnKGdz-0LNPJz43HVCp3su80H0om_B3Tm7uUOKMA9l4t2ry86nUbkxqn0QwqQIos4fXFFNeblVHWgR_L0fDkM3AzJwSJyvioErfoS5_IGxQagrHJ0Hs8MWEqSXI9z68DBoCQhga9Jju-fehLcgfc2ME3S-vXSipe2KFAxtsp9F9YsTaVQkO-w6DK4BBJUcv5f1bh-Jsn9ncqsdW9pYbk3jkudu8Fh-olm4ku4sIp6CuFtz1x8E5i1iuneXxCg0nse2hnTp7JxK8ukGO7NHHua8CZEqxHdDfGQPh4_dsOm9NJF4lknRLMj8Ys-QHp8HpwQjSjjWM_GS0]--></g></svg>