<svg xmlns="http://www.w3.org/2000/svg" xmlns:xlink="http://www.w3.org/1999/xlink" contentStyleType="text/css" data-diagram-type="SEQUENCE" height="356px" preserveAspectRatio="none" style="width:903px;height:356px;background:#FFFFFF;" version="1.1" viewBox="0 0 903 356" width="903px" zoomAndPan="magnify"><defs/><g><g><title>User</title><rect fill="#000000" fill-opacity="0.00000" height="194.7969" width="8" x="19.9551" y="81.2969"/><line style="stroke:#181818;stroke-width:0.5;stroke-dasharray:5.0,5.0;" x1="23" x2="23" y1="81.2969" y2="276.0938"/></g><g><title>Mobile App</title><rect fill="#000000" fill-opacity="0.00000" height="194.7969" width="8" x="302" y="81.2969"/><line style="stroke:#181818;stroke-width:0.5;stroke-dasharray:5.0,5.0;" x1="305.1377" x2="305.1377" y1="81.2969" y2="276.0938"/></g><g><title>Backend API</title><rect fill="#000000" fill-opacity="0.00000" height="194.7969" width="8" x="538.4243" y="81.2969"/><line style="stroke:#181818;stroke-width:0.5;stroke-dasharray:5.0,5.0;" x1="541.9443" x2="541.9443" y1="81.2969" y2="276.0938"/></g><g><title>Firebase Firestore</title><rect fill="#000000" fill-opacity="0.00000" height="194.7969" width="8" x="832.4663" y="81.2969"/><line style="stroke:#181818;stroke-width:0.5;stroke-dasharray:5.0,5.0;" x1="836.3843" x2="836.3843" y1="81.2969" y2="276.0938"/></g><g class="participant participant-head" data-participant="User"><text fill="#000000" font-family="sans-serif" font-size="14" lengthAdjust="spacing" textLength="31.9102" x="5" y="77.9951">User</text><ellipse cx="23.9551" cy="13.5" fill="#E2E2F0" rx="8" ry="8" style="stroke:#181818;stroke-width:0.5;"/><path d="M23.9551,21.5 L23.9551,48.5 M10.9551,29.5 L36.9551,29.5 M23.9551,48.5 L10.9551,63.5 M23.9551,48.5 L36.9551,63.5" fill="none" style="stroke:#181818;stroke-width:0.5;"/></g><g class="participant participant-tail" data-participant="User"><text fill="#000000" font-family="sans-serif" font-size="14" lengthAdjust="spacing" textLength="31.9102" x="5" y="288.0889">User</text><ellipse cx="23.9551" cy="299.8906" fill="#E2E2F0" rx="8" ry="8" style="stroke:#181818;stroke-width:0.5;"/><path d="M23.9551,307.8906 L23.9551,334.8906 M10.9551,315.8906 L36.9551,315.8906 M23.9551,334.8906 L10.9551,349.8906 M23.9551,334.8906 L36.9551,349.8906" fill="none" style="stroke:#181818;stroke-width:0.5;"/></g><g class="participant participant-head" data-participant="App"><rect fill="#E2E2F0" height="30.2969" rx="2.5" ry="2.5" style="stroke:#181818;stroke-width:0.5;" width="91.7246" x="260.1377" y="50"/><text fill="#000000" font-family="sans-serif" font-size="14" lengthAdjust="spacing" textLength="77.7246" x="267.1377" y="69.9951">Mobile App</text></g><g class="participant participant-tail" data-participant="App"><rect fill="#E2E2F0" height="30.2969" rx="2.5" ry="2.5" style="stroke:#181818;stroke-width:0.5;" width="91.7246" x="260.1377" y="275.0938"/><text fill="#000000" font-family="sans-serif" font-size="14" lengthAdjust="spacing" textLength="77.7246" x="267.1377" y="295.0889">Mobile App</text></g><g class="participant participant-head" data-participant="API"><rect fill="#E2E2F0" height="30.2969" rx="2.5" ry="2.5" style="stroke:#181818;stroke-width:0.5;" width="100.96" x="491.9443" y="50"/><text fill="#000000" font-family="sans-serif" font-size="14" lengthAdjust="spacing" textLength="86.96" x="498.9443" y="69.9951">Backend API</text></g><g class="participant participant-tail" data-participant="API"><rect fill="#E2E2F0" height="30.2969" rx="2.5" ry="2.5" style="stroke:#181818;stroke-width:0.5;" width="100.96" x="491.9443" y="275.0938"/><text fill="#000000" font-family="sans-serif" font-size="14" lengthAdjust="spacing" textLength="86.96" x="498.9443" y="295.0889">Backend API</text></g><g class="participant participant-head" data-participant="DB"><text fill="#000000" font-family="sans-serif" font-size="14" lengthAdjust="spacing" textLength="126.1641" x="770.3843" y="77.9951">Firebase Firestore</text><path d="M818.4663,29 C818.4663,19 836.4663,19 836.4663,19 C836.4663,19 854.4663,19 854.4663,29 L854.4663,55 C854.4663,65 836.4663,65 836.4663,65 C836.4663,65 818.4663,65 818.4663,55 L818.4663,29" fill="#E2E2F0" style="stroke:#181818;stroke-width:1.5;"/><path d="M818.4663,29 C818.4663,39 836.4663,39 836.4663,39 C836.4663,39 854.4663,39 854.4663,29" fill="none" style="stroke:#181818;stroke-width:1.5;"/></g><g class="participant participant-tail" data-participant="DB"><text fill="#000000" font-family="sans-serif" font-size="14" lengthAdjust="spacing" textLength="126.1641" x="770.3843" y="288.0889">Firebase Firestore</text><path d="M818.4663,301.3906 C818.4663,291.3906 836.4663,291.3906 836.4663,291.3906 C836.4663,291.3906 854.4663,291.3906 854.4663,301.3906 L854.4663,327.3906 C854.4663,337.3906 836.4663,337.3906 836.4663,337.3906 C836.4663,337.3906 818.4663,337.3906 818.4663,327.3906 L818.4663,301.3906" fill="#E2E2F0" style="stroke:#181818;stroke-width:1.5;"/><path d="M818.4663,301.3906 C818.4663,311.3906 836.4663,311.3906 836.4663,311.3906 C836.4663,311.3906 854.4663,311.3906 854.4663,301.3906" fill="none" style="stroke:#181818;stroke-width:1.5;"/></g><g class="message" data-participant-1="User" data-participant-2="App"><polygon fill="#181818" points="294,108.4297,304,112.4297,294,116.4297,298,112.4297" style="stroke:#181818;stroke-width:1;"/><line style="stroke:#181818;stroke-width:1;" x1="23.9551" x2="300" y1="112.4297" y2="112.4297"/><text fill="#000000" font-family="sans-serif" font-size="13" lengthAdjust="spacing" textLength="174.7383" x="30.9551" y="107.3638">&#1042;&#1074;&#1086;&#1076; &#1087;&#1086;&#1080;&#1089;&#1082;&#1086;&#1074;&#1086;&#1075;&#1086; &#1079;&#1072;&#1087;&#1088;&#1086;&#1089;&#1072;</text></g><g class="message" data-participant-1="App" data-participant-2="API"><polygon fill="#181818" points="530.4243,137.5625,540.4243,141.5625,530.4243,145.5625,534.4243,141.5625" style="stroke:#181818;stroke-width:1;"/><line style="stroke:#181818;stroke-width:1;" x1="306" x2="536.4243" y1="141.5625" y2="141.5625"/><text fill="#000000" font-family="sans-serif" font-size="13" lengthAdjust="spacing" textLength="212.4243" x="313" y="136.4966">GET /gallery/search?q=&lt;query&gt;</text></g><g class="message" data-participant-1="API" data-participant-2="DB"><polygon fill="#181818" points="824.4663,166.6953,834.4663,170.6953,824.4663,174.6953,828.4663,170.6953" style="stroke:#181818;stroke-width:1;"/><line style="stroke:#181818;stroke-width:1;" x1="542.4243" x2="830.4663" y1="170.6953" y2="170.6953"/><text fill="#000000" font-family="sans-serif" font-size="13" lengthAdjust="spacing" textLength="270.042" x="549.4243" y="165.6294">&#1042;&#1099;&#1087;&#1086;&#1083;&#1085;&#1080;&#1090;&#1100; &#1087;&#1086;&#1080;&#1089;&#1082; &#1074; &#1082;&#1086;&#1083;&#1083;&#1077;&#1082;&#1094;&#1080;&#1080; &#1075;&#1072;&#1083;&#1077;&#1088;&#1077;&#1080;</text></g><g class="message" data-participant-1="DB" data-participant-2="API"><polygon fill="#181818" points="553.4243,195.8281,543.4243,199.8281,553.4243,203.8281,549.4243,199.8281" style="stroke:#181818;stroke-width:1;"/><line style="stroke:#181818;stroke-width:1;stroke-dasharray:2.0,2.0;" x1="547.4243" x2="835.4663" y1="199.8281" y2="199.8281"/><text fill="#000000" font-family="sans-serif" font-size="13" lengthAdjust="spacing" textLength="209.606" x="559.4243" y="194.7622">&#1042;&#1077;&#1088;&#1085;&#1091;&#1090;&#1100; &#1085;&#1072;&#1081;&#1076;&#1077;&#1085;&#1085;&#1099;&#1077; &#1101;&#1083;&#1077;&#1084;&#1077;&#1085;&#1090;&#1099;</text></g><g class="message" data-participant-1="API" data-participant-2="App"><polygon fill="#181818" points="317,224.9609,307,228.9609,317,232.9609,313,228.9609" style="stroke:#181818;stroke-width:1;"/><line style="stroke:#181818;stroke-width:1;stroke-dasharray:2.0,2.0;" x1="311" x2="541.4243" y1="228.9609" y2="228.9609"/><text fill="#000000" font-family="sans-serif" font-size="13" lengthAdjust="spacing" textLength="204.6104" x="323" y="223.895">&#1054;&#1090;&#1074;&#1077;&#1090; &#1089; &#1088;&#1077;&#1079;&#1091;&#1083;&#1100;&#1090;&#1072;&#1090;&#1072;&#1084;&#1080; &#1087;&#1086;&#1080;&#1089;&#1082;&#1072;</text></g><g class="message" data-participant-1="App" data-participant-2="User"><polygon fill="#181818" points="34.9551,254.0938,24.9551,258.0938,34.9551,262.0938,30.9551,258.0938" style="stroke:#181818;stroke-width:1;"/><line style="stroke:#181818;stroke-width:1;" x1="28.9551" x2="305" y1="258.0938" y2="258.0938"/><text fill="#000000" font-family="sans-serif" font-size="13" lengthAdjust="spacing" textLength="258.0449" x="40.9551" y="253.0278">&#1054;&#1090;&#1086;&#1073;&#1088;&#1072;&#1079;&#1080;&#1090;&#1100; &#1085;&#1072;&#1081;&#1076;&#1077;&#1085;&#1085;&#1099;&#1077; &#1080;&#1079;&#1086;&#1073;&#1088;&#1072;&#1078;&#1077;&#1085;&#1080;&#1103;</text></g><!--SRC=[TL31Ji904BtlLqnw9zoDOcXGquD93_e1Izbe8u7IreCtAOcNOapy0B-X8hKhqF8BCt_ax68G3sQpcTqtRzwR6HcaunYk4nMBICPf68IH7ANWN8xxuL11DueSa8c9V_Ek3ExKQ01TtziHV4yCP2hxCb7Wd8UniY_pIDX1MLBF5S9OGQjZ5E48y1KNsE0ISCj1qnHN70tqWGrWXGLkwH4RJXJ2b9XAt-FAYxChQD_8uL353-r4oJYuFPsS74_k-TyHXiFKdcizABVoQwpP8gFvWHlW0gpdca-9Atf2ZHhOlZ00UvUe1UkqzixSiy5hcksqQgP-uPA9DOCvba3FLcnZ8ERaktP-XtwZZ6SiAGEQWhMeQ8PhcZDUcCkb-d0b-zdjzduK6dpdseANfFzhX6UfzhnFcz3qyWq0]--></g></svg>