<svg xmlns="http://www.w3.org/2000/svg" xmlns:xlink="http://www.w3.org/1999/xlink" contentStyleType="text/css" data-diagram-type="DESCRIPTION" height="414px" preserveAspectRatio="none" style="width:530px;height:414px;background:#FFFFFF;" version="1.1" viewBox="0 0 530 414" width="530px" zoomAndPan="magnify"><title>Static (Component) View - Gallery Search System</title><defs/><g><g class="title" data-source-line="1"><text fill="#000000" font-family="sans-serif" font-size="14" font-weight="bold" lengthAdjust="spacing" textLength="390.7422" x="62.6333" y="22.9951">Static (Component) View - Gallery Search System</text></g><!--cluster Client--><g class="cluster" data-entity="Client" data-source-line="7" data-uid="ent0002" id="cluster_Client"><path d="M182.5,43.2969 L229.5264,43.2969 A3.75,3.75 0 0 1 232.0264,45.7969 L239.0264,65.5938 L307.5,65.5938 A2.5,2.5 0 0 1 310,68.0938 L310,127.7969 A2.5,2.5 0 0 1 307.5,130.2969 L182.5,130.2969 A2.5,2.5 0 0 1 180,127.7969 L180,45.7969 A2.5,2.5 0 0 1 182.5,43.2969" fill="none" style="stroke:#000000;stroke-width:1.5;"/><line style="stroke:#000000;stroke-width:1.5;" x1="180" x2="239.0264" y1="65.5938" y2="65.5938"/><text fill="#000000" font-family="sans-serif" font-size="14" font-weight="bold" lengthAdjust="spacing" textLength="46.0264" x="184" y="58.292">Client</text></g><!--cluster Backend--><g class="cluster" data-entity="Backend" data-source-line="12" data-uid="ent0004" id="cluster_Backend"><polygon fill="none" points="174,189.2969,184,179.2969,317,179.2969,317,278.2969,307,288.2969,174,288.2969,174,189.2969" style="stroke:#181818;stroke-width:1;"/><line style="stroke:#181818;stroke-width:1;" x1="307" x2="317" y1="189.2969" y2="179.2969"/><line style="stroke:#181818;stroke-width:1;" x1="174" x2="307" y1="189.2969" y2="189.2969"/><line style="stroke:#181818;stroke-width:1;" x1="307" x2="307" y1="189.2969" y2="288.2969"/><text fill="#000000" font-family="sans-serif" font-size="14" font-weight="bold" lengthAdjust="spacing" textLength="67.2109" x="207.8945" y="205.292">Backend</text></g><!--entity App--><g class="entity" data-entity="App" data-source-line="8" data-uid="ent0003" id="entity_App"><rect fill="#F1F1F1" height="36.2969" rx="2.5" ry="2.5" style="stroke:#181818;stroke-width:0.5;" width="97.7246" x="196" y="78.2969"/><text fill="#000000" font-family="sans-serif" font-size="14" lengthAdjust="spacing" textLength="77.7246" x="206" y="101.292">Mobile App</text></g><!--entity API--><g class="entity" data-entity="API" data-source-line="13" data-uid="ent0005" id="entity_API"><rect fill="#F1F1F1" height="52.5938" rx="2.5" ry="2.5" style="stroke:#181818;stroke-width:0.5;" width="111.0684" x="189.5" y="219.2969"/><text fill="#000000" font-family="sans-serif" font-size="14" lengthAdjust="spacing" textLength="78.3398" x="199.5" y="242.292">API Service</text><text fill="#000000" font-family="sans-serif" font-size="14" lengthAdjust="spacing" textLength="91.0684" x="199.5" y="258.5889">(spring-boot)</text></g><!--entity DB--><g class="entity" data-entity="DB" data-source-line="17" data-uid="ent0006" id="entity_DB"><path d="M6,361.7969 C6,351.7969 69.2349,351.7969 69.2349,351.7969 C69.2349,351.7969 132.4697,351.7969 132.4697,361.7969 L132.4697,387.0938 C132.4697,397.0938 69.2349,397.0938 69.2349,397.0938 C69.2349,397.0938 6,397.0938 6,387.0938 L6,361.7969" fill="#F1F1F1" style="stroke:#181818;stroke-width:0.5;"/><path d="M6,361.7969 C6,371.7969 69.2349,371.7969 69.2349,371.7969 C69.2349,371.7969 132.4697,371.7969 132.4697,361.7969" fill="none" style="stroke:#181818;stroke-width:0.5;"/><text fill="#000000" font-family="sans-serif" font-size="14" lengthAdjust="spacing" textLength="106.4697" x="16" y="388.792">Cloud Firestore</text></g><!--entity Auth--><g class="entity" data-entity="Auth" data-source-line="20" data-uid="ent0007" id="entity_Auth"><path d="M189.5208,361.088 C192.0488,354.3491 197.7225,353.8993 201.9321,359.3801 C204.9149,354.9709 209.9325,354.5953 212.1532,360.1611 C214.5496,354.0938 219.9474,354.0315 223.8412,358.5 C227.0419,351.7941 232.432,351.6842 236.0565,358.1057 C238.7311,353.828 241.6235,353.3606 245.2002,357.0734 C249.0312,350.5042 253.0006,352.1213 257.0992,356.79 C262.0216,351.8932 266.1977,353.305 268.7132,359.3457 C271.8019,353.9532 275.6171,354.3316 278.8812,359.1714 C283.1698,354.6699 287.4777,354.1134 290.4983,360.5216 C293.8209,354.4323 297.8101,354.4875 301.5263,360.1523 C308.3908,363.5651 310.8343,371.1827 302.6717,375.7024 C310.3676,380.5121 309.8984,386.2979 302.484,390.9213 C299.5533,397.0238 294.9431,396.7624 291.508,391.4043 C287.2631,397.7118 283.2856,396.0603 279.6117,390.8163 C276.3469,397.062 271.9346,397.6287 267.238,392.3542 C264.3403,396.5692 260.2646,396.6364 257.2278,392.5212 C255.411,398.0607 250.4342,398.0385 247.0284,394.2607 C242.1748,400.3495 238.1379,399.4532 234.5905,392.9686 C229.9415,398.7947 225.9327,397.9407 223.011,391.3568 C220.607,396.6531 215.9385,396.7569 213.1714,391.7018 C209.9608,397.4657 203.9294,397.4029 201.1132,391.301 C197.2992,395.0044 193.2359,394.4192 190.7432,389.6784 C183.7951,386.8797 181.5694,381.5046 187.0333,375.466 C180.9658,370.008 181.5535,364.1178 189.5208,361.088" fill="#F1F1F1" style="stroke:#181818;stroke-width:0.5;"/><text fill="#000000" font-family="sans-serif" font-size="14" lengthAdjust="spacing" textLength="96.9473" x="196.5" y="379.292">Firebase Auth</text></g><!--entity Tasks--><g class="entity" data-entity="Tasks" data-source-line="21" data-uid="ent0008" id="entity_Tasks"><path d="M349,361.2969 L443.2666,361.2969 C448.2666,361.2969 448.2666,374.4453 448.2666,374.4453 C448.2666,374.4453 448.2666,387.5938 443.2666,387.5938 L349,387.5938 C344,387.5938 344,374.4453 344,374.4453 C344,374.4453 344,361.2969 349,361.2969" fill="#F1F1F1" style="stroke:#181818;stroke-width:0.5;"/><path d="M443.2666,361.2969 C438.2666,361.2969 438.2666,374.4453 438.2666,374.4453 C438.2666,387.5938 443.2666,387.5938 443.2666,387.5938" fill="none" style="stroke:#181818;stroke-width:0.5;"/><text fill="#000000" font-family="sans-serif" font-size="14" lengthAdjust="spacing" textLength="84.2666" x="349" y="379.292">Cloud Tasks</text></g><!--link App to API--><g class="link" data-entity-1="App" data-entity-2="API" data-source-line="24" data-uid="lnk9" id="link_App_API"><path d="M245,114.5069 C245,140.2669 245,183.0369 245,213.0469" fill="none" id="App-to-API" style="stroke:#000000;stroke-width:1;"/><polygon fill="#000000" points="245,219.0469,249,210.0469,245,214.0469,241,210.0469,245,219.0469" style="stroke:#000000;stroke-width:1;"/><text fill="#000000" font-family="sans-serif" font-size="13" lengthAdjust="spacing" textLength="125.8867" x="246" y="159.3638">REST/HTTPS (JSON)</text></g><!--link API to DB--><g class="link" data-entity-1="API" data-entity-2="DB" data-source-line="25" data-uid="lnk10" id="link_API_DB"><path d="M189.31,258.4869 C160.06,267.0169 125.33,281.2469 101,304.2969 C87.48,317.0969 80.9582,331.0058 76.1982,346.0658" fill="none" id="API-to-DB" style="stroke:#000000;stroke-width:1;"/><polygon fill="#000000" points="74.39,351.7869,80.9164,344.4108,75.8969,347.0193,73.2883,341.9998,74.39,351.7869" style="stroke:#000000;stroke-width:1;"/><text fill="#000000" font-family="sans-serif" font-size="13" lengthAdjust="spacing" textLength="134.8179" x="102" y="317.3638">Firebase SDK (gRPC)</text></g><!--link API to Auth--><g class="link" data-entity-1="API" data-entity-2="Auth" data-source-line="26" data-uid="lnk11" id="link_API_Auth"><path d="M245,272.3969 C245,295.4969 245,323.1369 245,345.1169" fill="none" id="API-to-Auth" style="stroke:#000000;stroke-width:1;"/><polygon fill="#000000" points="245,351.1169,249,342.1169,245,346.1169,241,342.1169,245,351.1169" style="stroke:#000000;stroke-width:1;"/><text fill="#000000" font-family="sans-serif" font-size="13" lengthAdjust="spacing" textLength="92.7646" x="246" y="317.3638">JWT validation</text></g><!--link API to Tasks--><g class="link" data-entity-1="API" data-entity-2="Tasks" data-source-line="27" data-uid="lnk12" id="link_API_Tasks"><path d="M300.63,272.3769 C316.58,281.1869 333.33,291.9869 347,304.2969 C365.67,321.1169 378.3339,341.0088 386.6239,355.8488" fill="none" id="API-to-Tasks" style="stroke:#000000;stroke-width:1;"/><polygon fill="#000000" points="389.55,361.0869,388.6529,351.279,387.1116,356.7218,381.6687,355.1805,389.55,361.0869" style="stroke:#000000;stroke-width:1;"/><text fill="#000000" font-family="sans-serif" font-size="13" lengthAdjust="spacing" textLength="159.0088" x="363" y="317.3638">publish background jobs</text></g><!--SRC=[dLBBJiCm4BpxArQva1uYxZqWzGMq25er4Ho0moPTfQQkRModfKByEnltGO-ekNYbdPsPdKsGGH7a0OEi81sOjJMQTEZ0iwGjP727If7RGKxegYNaEnzeBOHVIMtHuHgguqWUTipag0geQqLd47JER0T66GTzXTLAYAiios2W98zvo2xyX6Kkh0cIFLC2tmBWzT6Kaetqh7q7zEqhVWwAVHuWlG25Et8Nw0fj5YnteDdhdVQ7f3SRSqvk8ojwqwctJkewAuq9dIGwcOrFJeOOy68RhPC54vJeu_AcMS2jTEI3SHIbXls3JZgrGHgDgWEZhq2EA_1xY_yANbIHFMdferol2SlzDbo8puQQauK2_Sh7NgoEcvBbh4XNaYuwjU030W_UjFa1T64-oelh-wAOvP1EykbJHyH6YnZseKMSpER31qZh-MnmXcbzCsRoKi06bUGSEP-_ThJU1TkKIlebb7pgsfc6VveFK_fV]--></g></svg>