<svg width="297" height="231" viewBox="0 0 297 231" fill="none" xmlns="http://www.w3.org/2000/svg">
<g clip-path="url(#clip0_85_46)">
<path d="M169.113 112.952C175.796 112.952 181.214 107.526 181.214 100.833C181.214 94.14 175.796 88.7142 169.113 88.7142C162.43 88.7142 157.012 94.14 157.012 100.833C157.012 107.526 162.43 112.952 169.113 112.952Z" fill="#E6E6E6"/>
<path d="M198.77 116.407L186.124 103.742C187.094 102.232 187.751 100.543 188.056 98.7739C188.362 97.0051 188.309 95.1928 187.903 93.4446C187.496 91.6963 186.743 90.0475 185.689 88.596C184.634 87.1445 183.299 85.9197 181.763 84.9943C178.872 83.2641 175.436 82.6847 172.138 83.3708C168.84 84.057 165.919 85.9587 163.954 88.6992C162.146 91.2378 161.278 94.3278 161.499 97.4381C161.719 100.548 163.015 103.484 165.163 105.742C167.311 107.999 170.177 109.436 173.268 109.807C176.359 110.177 179.483 109.457 182.102 107.771L194.747 120.435C195.281 120.969 196.004 121.269 196.758 121.269C197.513 121.268 198.236 120.968 198.769 120.434C199.302 119.9 199.602 119.176 199.602 118.421C199.602 117.665 199.303 116.941 198.77 116.407ZM181.63 103.269C180.063 104.839 178.001 105.815 175.796 106.033C173.591 106.25 171.378 105.695 169.536 104.462C167.693 103.229 166.335 101.395 165.692 99.2712C165.048 97.1476 165.16 94.8662 166.008 92.8159C166.856 90.7656 168.388 89.0732 170.342 88.027C172.296 86.9809 174.552 86.6457 176.726 87.0787C178.899 87.5116 180.855 88.6859 182.261 90.4014C183.667 92.1168 184.435 94.2674 184.435 96.4867C184.437 97.7465 184.19 98.9943 183.708 100.158C183.227 101.322 182.52 102.38 181.63 103.269Z" fill="#3F3D56"/>
<path d="M290.436 135.087C322.775 170.905 229.029 222.523 153.279 222.523C77.5296 222.523 25.1228 182.528 16.1225 135.087C-5.70017 20.0596 202.057 -53.0514 153.279 47.6516C82.1803 194.438 264.968 106.88 290.436 135.087Z" fill="#E6E6E6"/>
<path d="M275.926 143.564C308.265 179.382 214.519 231 138.769 231C63.0195 231 10.6126 191.005 1.61234 143.564C-20.2103 28.5366 187.547 -44.5744 138.769 56.1285C67.6702 202.915 250.458 115.357 275.926 143.564Z" fill="#3F3D56"/>
<path d="M45.2213 59.5882C22.5289 58.5875 4.93419 53.6852 5.16534 48.4276C5.30392 45.2755 11.7261 42.7407 22.7851 41.4736C22.8247 41.4688 22.8648 41.4719 22.9032 41.4827C22.9416 41.4935 22.9774 41.5118 23.0087 41.5365C23.04 41.5613 23.0661 41.592 23.0855 41.6268C23.1049 41.6617 23.1172 41.7001 23.1218 41.7398C23.1263 41.7794 23.123 41.8196 23.1119 41.858C23.1009 41.8964 23.0824 41.9322 23.0575 41.9633C23.0326 41.9945 23.0017 42.0204 22.9668 42.0396C22.9318 42.0588 22.8934 42.0709 22.8538 42.0752C12.4362 43.2689 5.88985 45.7132 5.76933 48.4542C5.5603 53.2087 23.6392 58.0304 45.2479 58.9832C66.8566 59.9361 85.2887 56.7245 85.4977 51.97C85.6187 49.2174 79.2714 46.1979 68.9327 44.0899C68.8937 44.0821 68.8566 44.0666 68.8236 44.0444C68.7906 44.0222 68.7622 43.9937 68.7402 43.9605C68.7182 43.9273 68.703 43.8901 68.6954 43.851C68.6878 43.8119 68.688 43.7717 68.6959 43.7327C68.7038 43.6936 68.7194 43.6566 68.7416 43.6236C68.7639 43.5905 68.7925 43.5623 68.8257 43.5403C68.8589 43.5184 68.8961 43.5032 68.9351 43.4957C68.9742 43.4882 69.0144 43.4885 69.0533 43.4966C80.0269 45.734 86.2408 48.8322 86.1017 51.9966C85.8706 57.2542 67.9137 60.5888 45.2213 59.5882Z" fill="#6C63FF"/>
<path d="M25.0671 60.4688C26.9655 64.0804 29.7776 67.1294 33.2221 69.3108C36.6666 71.4922 40.6227 72.7294 44.6946 72.8987C48.7665 73.0679 52.8113 72.1633 56.4245 70.2753C60.0376 68.3873 63.0924 65.5821 65.2831 62.1405C51.8573 62.3217 38.4317 61.7636 25.0671 60.4688Z" fill="#6C63FF"/>
<path d="M67.7933 55.7722C68.9358 52.3402 69.265 48.689 68.7548 45.1076C68.2447 41.5261 66.9092 38.1128 64.8541 35.1376C62.799 32.1625 60.0806 29.7072 56.9142 27.9661C53.7477 26.225 50.2201 25.246 46.6105 25.1064C43.0009 24.9668 39.4084 25.6705 36.1174 27.1618C32.8263 28.6531 29.927 30.8911 27.6489 33.6987C25.3708 36.5063 23.7764 39.8063 22.992 43.3377C22.2076 46.8691 22.2547 50.5348 23.1295 54.0448C37.8802 56.5526 52.8934 57.1333 67.7933 55.7722Z" fill="#6C63FF"/>
<path d="M51.0374 40.1444C52.54 40.1444 53.7581 38.9245 53.7581 37.4197C53.7581 35.9148 52.54 34.6949 51.0374 34.6949C49.5348 34.6949 48.3168 35.9148 48.3168 37.4197C48.3168 38.9245 49.5348 40.1444 51.0374 40.1444Z" fill="white"/>
<path d="M37.0351 50.7377C39.5394 50.7377 41.5696 48.7045 41.5696 46.1965C41.5696 43.6884 39.5394 41.6553 37.0351 41.6553C34.5309 41.6553 32.5007 43.6884 32.5007 46.1965C32.5007 48.7045 34.5309 50.7377 37.0351 50.7377Z" fill="white"/>
<path d="M105.472 46.2893C107.141 46.2893 108.495 44.9339 108.495 43.2619C108.495 41.5899 107.141 40.2345 105.472 40.2345C103.802 40.2345 102.449 41.5899 102.449 43.2619C102.449 44.9339 103.802 46.2893 105.472 46.2893Z" fill="#6C63FF"/>
<path d="M37.1534 138.93C38.1551 138.93 38.9672 138.117 38.9672 137.113C38.9672 136.11 38.1551 135.297 37.1534 135.297C36.1517 135.297 35.3396 136.11 35.3396 137.113C35.3396 138.117 36.1517 138.93 37.1534 138.93Z" fill="#E6E6E6"/>
<path d="M164.117 201.296C165.119 201.296 165.931 200.482 165.931 199.479C165.931 198.476 165.119 197.663 164.117 197.663C163.115 197.663 162.303 198.476 162.303 199.479C162.303 200.482 163.115 201.296 164.117 201.296Z" fill="#E6E6E6"/>
<path d="M45.92 103.811C46.4208 103.811 46.8269 103.405 46.8269 102.903C46.8269 102.401 46.4208 101.995 45.92 101.995C45.4191 101.995 45.0131 102.401 45.0131 102.903C45.0131 103.405 45.4191 103.811 45.92 103.811Z" fill="#E6E6E6"/>
<path d="M120.889 171.627C121.39 171.627 121.796 171.22 121.796 170.718C121.796 170.217 121.39 169.81 120.889 169.81C120.388 169.81 119.982 170.217 119.982 170.718C119.982 171.22 120.388 171.627 120.889 171.627Z" fill="#E6E6E6"/>
<path d="M257.223 162.847C257.724 162.847 258.13 162.44 258.13 161.939C258.13 161.437 257.724 161.03 257.223 161.03C256.723 161.03 256.317 161.437 256.317 161.939C256.317 162.44 256.723 162.847 257.223 162.847Z" fill="#E6E6E6"/>
<path d="M214.6 189.791C215.101 189.791 215.507 189.385 215.507 188.883C215.507 188.381 215.101 187.975 214.6 187.975C214.099 187.975 213.693 188.381 213.693 188.883C213.693 189.385 214.099 189.791 214.6 189.791Z" fill="#E6E6E6"/>
<path d="M170.163 157.095C170.664 157.095 171.07 156.688 171.07 156.186C171.07 155.685 170.664 155.278 170.163 155.278C169.662 155.278 169.256 155.685 169.256 156.186C169.256 156.688 169.662 157.095 170.163 157.095Z" fill="#E6E6E6"/>
<path d="M112.727 67.4817C113.228 67.4817 113.634 67.075 113.634 66.5734C113.634 66.0718 113.228 65.6652 112.727 65.6652C112.226 65.6652 111.82 66.0718 111.82 66.5734C111.82 67.075 112.226 67.4817 112.727 67.4817Z" fill="#E6E6E6"/>
<path d="M119.982 22.6752C120.483 22.6752 120.889 22.2685 120.889 21.7669C120.889 21.2653 120.483 20.8586 119.982 20.8586C119.481 20.8586 119.075 21.2653 119.075 21.7669C119.075 22.2685 119.481 22.6752 119.982 22.6752Z" fill="#E6E6E6"/>
<path d="M115.75 211.286C116.251 211.286 116.657 210.88 116.657 210.378C116.657 209.876 116.251 209.47 115.75 209.47C115.249 209.47 114.843 209.876 114.843 210.378C114.843 210.88 115.249 211.286 115.75 211.286Z" fill="#E6E6E6"/>
<path d="M71.0103 192.213C71.5112 192.213 71.9172 191.807 71.9172 191.305C71.9172 190.803 71.5112 190.397 71.0103 190.397C70.5094 190.397 70.1034 190.803 70.1034 191.305C70.1034 191.807 70.5094 192.213 71.0103 192.213Z" fill="#E6E6E6"/>
<path d="M212.786 159.517C213.287 159.517 213.693 159.11 213.693 158.608C213.693 158.107 213.287 157.7 212.786 157.7C212.285 157.7 211.879 158.107 211.879 158.608C211.879 159.11 212.285 159.517 212.786 159.517Z" fill="#E6E6E6"/>
<path d="M44.8525 70.7817C46.3551 70.7817 47.5731 69.5618 47.5731 68.057C47.5731 66.5522 46.3551 65.3323 44.8525 65.3323C43.3499 65.3323 42.1318 66.5522 42.1318 68.057C42.1318 69.5618 43.3499 70.7817 44.8525 70.7817Z" fill="white"/>
<path d="M106.379 109.866C106.379 118.004 93.8156 136.967 90.1442 142.335C90.0334 142.497 89.8848 142.63 89.7112 142.722C89.5376 142.813 89.3443 142.861 89.148 142.861C88.9517 142.861 88.7584 142.813 88.5848 142.722C88.4112 142.63 88.2626 142.497 88.1518 142.335C84.4804 136.967 71.9172 118.004 71.9172 109.866C71.9172 107.6 72.3629 105.356 73.2288 103.262C74.0948 101.169 75.364 99.2664 76.964 97.6639C78.564 96.0615 80.4635 94.7904 82.5541 93.9232C84.6446 93.056 86.8852 92.6096 89.148 92.6096C91.4108 92.6096 93.6514 93.056 95.7419 93.9232C97.8325 94.7904 99.732 96.0615 101.332 97.6639C102.932 99.2664 104.201 101.169 105.067 103.262C105.933 105.356 106.379 107.6 106.379 109.866Z" fill="white"/>
<path d="M89.148 117.435C93.9896 117.435 97.9145 113.504 97.9145 108.655C97.9145 103.806 93.9896 99.8756 89.148 99.8756C84.3064 99.8756 80.3815 103.806 80.3815 108.655C80.3815 113.504 84.3064 117.435 89.148 117.435Z" fill="#6C63FF"/>
<path d="M88.9968 152.251C94.5897 152.251 99.1237 151.37 99.1237 150.283C99.1237 149.196 94.5897 148.315 88.9968 148.315C83.4039 148.315 78.87 149.196 78.87 150.283C78.87 151.37 83.4039 152.251 88.9968 152.251Z" fill="white"/>
<path d="M246.93 96.2491C246.853 96.398 246.788 96.5527 246.736 96.7118L232.291 100.731L229.688 98.1802L225.331 101.611L229.501 106.576C229.837 106.977 230.295 107.258 230.805 107.376C231.315 107.495 231.849 107.444 232.328 107.233L247.931 100.335C248.461 100.703 249.089 100.901 249.734 100.902C250.378 100.903 251.008 100.708 251.539 100.343C252.069 99.977 252.477 99.4581 252.706 98.855C252.935 98.2519 252.976 97.5931 252.822 96.9664C252.669 96.3397 252.328 95.7746 251.846 95.3464C251.364 94.9182 250.763 94.6471 250.123 94.5692C249.484 94.4914 248.836 94.6104 248.265 94.9105C247.695 95.2105 247.229 95.6774 246.93 96.2491Z" fill="#FFB8B8"/>
<path d="M231.783 100.967L226.361 105.193C226.207 105.313 226.028 105.399 225.838 105.444C225.648 105.489 225.45 105.492 225.258 105.454C225.067 105.416 224.886 105.336 224.727 105.221C224.569 105.106 224.437 104.959 224.341 104.788L220.971 98.8159C220.361 98.022 220.091 97.0182 220.219 96.0247C220.347 95.0312 220.863 94.129 221.654 93.516C222.445 92.903 223.447 92.6293 224.439 92.7548C225.431 92.8804 226.334 93.3949 226.948 94.1857L231.887 98.9066C232.028 99.0418 232.139 99.206 232.211 99.3879C232.283 99.5697 232.315 99.7651 232.306 99.9606C232.296 100.156 232.244 100.347 232.154 100.521C232.063 100.695 231.937 100.847 231.783 100.967Z" fill="#6C63FF"/>
<path d="M248.315 94.2501L253.813 96.7274C254.043 96.8312 254.223 97.0223 254.313 97.2587C254.402 97.4951 254.394 97.7574 254.291 97.988L253.64 99.4371C253.716 99.4718 253.776 99.5356 253.806 99.6143C253.836 99.693 253.833 99.7804 253.799 99.8573L253.539 100.437C253.504 100.514 253.44 100.573 253.362 100.603C253.283 100.633 253.196 100.631 253.119 100.596L252.859 101.176C252.935 101.211 252.995 101.274 253.025 101.353C253.054 101.432 253.052 101.519 253.018 101.596L252.757 102.176C252.723 102.252 252.659 102.312 252.58 102.342C252.502 102.372 252.415 102.369 252.338 102.335L248.823 110.16C248.719 110.391 248.528 110.571 248.292 110.66C248.056 110.75 247.794 110.742 247.564 110.638L242.066 108.161C241.836 108.057 241.656 107.866 241.566 107.63C241.477 107.393 241.485 107.131 241.588 106.9L247.056 94.7283C247.16 94.4978 247.351 94.3178 247.587 94.2281C247.823 94.1384 248.085 94.1463 248.315 94.2501Z" fill="#3F3D56"/>
<path d="M243.064 107.39L247.475 109.379C247.696 109.478 247.947 109.486 248.173 109.4C248.4 109.314 248.583 109.142 248.684 108.922L250.721 104.384L251.428 102.811L253.272 98.7048C253.37 98.4839 253.378 98.2329 253.292 98.0067C253.207 97.7804 253.035 97.5973 252.815 97.4972L251.428 96.8712L248.401 95.5079C248.18 95.409 247.929 95.4021 247.703 95.4884C247.477 95.5748 247.294 95.7475 247.195 95.9686L245.412 99.9379L243.381 104.457L242.607 106.182C242.508 106.403 242.501 106.654 242.586 106.881C242.672 107.107 242.844 107.29 243.064 107.39Z" fill="#F2F2F2"/>
<path d="M233.848 163.617L237.554 163.617L239.317 149.301L233.847 149.301L233.848 163.617Z" fill="#FFB8B8"/>
<path d="M232.902 162.406L240.201 162.405C240.812 162.405 241.417 162.526 241.981 162.76C242.546 162.994 243.058 163.337 243.49 163.77C243.922 164.202 244.265 164.716 244.498 165.281C244.732 165.846 244.853 166.452 244.853 167.063V167.215L232.903 167.215L232.902 162.406Z" fill="#2F2E41"/>
<path d="M243.521 162.709L247.227 162.709L248.991 148.392L243.521 148.393L243.521 162.709Z" fill="#FFB8B8"/>
<path d="M242.576 161.497L249.874 161.497C250.485 161.497 251.09 161.617 251.655 161.851C252.219 162.086 252.732 162.429 253.164 162.861C253.596 163.294 253.938 163.807 254.172 164.372C254.406 164.938 254.526 165.543 254.526 166.155V166.306L242.576 166.307L242.576 161.497Z" fill="#2F2E41"/>
<path d="M217.224 130.023C218.014 132.367 219.511 134.408 221.51 135.862C223.508 137.316 225.908 138.112 228.379 138.14L228.566 138.143C230.479 138.197 232.726 137.58 234.929 136.693C239.282 134.94 243.463 132.133 244.572 131.361L242.692 149.462L241.93 156.801C241.911 156.991 241.932 157.183 241.991 157.364C242.05 157.545 242.147 157.712 242.274 157.854C242.402 157.996 242.558 158.109 242.732 158.187C242.906 158.265 243.094 158.305 243.285 158.306H247.979C248.28 158.306 248.573 158.206 248.811 158.022C249.05 157.838 249.221 157.58 249.297 157.288L257.048 127.725C257.281 126.84 257.299 125.913 257.103 125.019C256.906 124.126 256.5 123.292 255.918 122.587C255.335 121.882 254.594 121.326 253.754 120.965C252.915 120.604 252.001 120.448 251.09 120.511L234.99 121.616L236.114 117.111L221.743 116.154L221.701 116.185C221.356 116.436 221.021 116.699 220.7 116.975C219.899 117.653 219.189 118.433 218.587 119.294C217.511 120.839 216.825 122.622 216.587 124.49C216.35 126.359 216.568 128.258 217.224 130.023Z" fill="#2F2E41"/>
<path d="M217.224 130.023C218.014 132.367 219.511 134.408 221.51 135.862C223.508 137.316 225.908 138.112 228.379 138.14C230.741 136.943 233.02 135.588 235.201 134.086L234.929 136.693L232.559 159.526C232.54 159.716 232.561 159.907 232.62 160.089C232.679 160.27 232.776 160.437 232.903 160.579C233.031 160.721 233.187 160.834 233.361 160.912C233.535 160.99 233.723 161.03 233.914 161.03H238.608C238.909 161.031 239.202 160.931 239.44 160.747C239.679 160.563 239.85 160.305 239.926 160.013L242.692 149.463L247.677 130.45C247.909 129.565 247.928 128.638 247.732 127.744C247.535 126.85 247.129 126.017 246.546 125.312C245.964 124.607 245.223 124.05 244.383 123.689C243.543 123.328 242.63 123.173 241.719 123.236L225.619 124.341L226.743 119.836L218.587 119.294C217.511 120.839 216.825 122.622 216.587 124.49C216.35 126.359 216.568 128.258 217.224 130.023Z" fill="#2F2E41"/>
<path d="M220.68 118.019L220.572 118.006L218.064 105.659C218.043 105.551 215.993 94.901 222.277 89.3331L222.386 88.5711C222.414 88.376 222.484 88.1894 222.591 88.0241C222.698 87.8587 222.84 87.7186 223.006 87.6133C223.172 87.5081 223.36 87.4402 223.555 87.4144C223.75 87.3885 223.948 87.4054 224.136 87.4637L230.056 89.3028C230.391 89.4062 230.674 89.6355 230.844 89.9426C231.014 90.2497 231.059 90.6108 230.969 90.9503L230.393 93.1427C231.191 94.0813 240.585 105.408 237.313 114.134L235.847 119.871L220.68 118.019Z" fill="#6C63FF"/>
<path d="M245.262 108.382C245.121 108.472 244.987 108.572 244.861 108.682L230.382 104.789L229.435 101.267L223.941 102.003L225.011 108.402C225.098 108.919 225.349 109.393 225.728 109.755C226.107 110.116 226.593 110.345 227.113 110.407L244.051 112.41C244.32 112.997 244.761 113.487 245.315 113.817C245.869 114.146 246.51 114.298 247.153 114.254C247.796 114.209 248.41 113.97 248.914 113.567C249.417 113.165 249.787 112.618 249.973 112C250.158 111.382 250.152 110.722 249.954 110.108C249.756 109.494 249.377 108.955 248.865 108.562C248.354 108.169 247.735 107.942 247.092 107.909C246.448 107.877 245.81 108.042 245.262 108.382Z" fill="#FFB8B8"/>
<path d="M229.824 104.733L223.01 105.612C222.816 105.637 222.619 105.62 222.432 105.562C222.245 105.504 222.074 105.406 221.928 105.276C221.782 105.145 221.667 104.984 221.589 104.805C221.511 104.625 221.472 104.431 221.476 104.235L221.606 97.3768C221.484 96.3826 221.76 95.3804 222.375 94.5901C222.989 93.7997 223.891 93.2857 224.884 93.1606C225.876 93.0355 226.877 93.3097 227.668 93.923C228.459 94.5362 228.975 95.4385 229.102 96.4321L230.959 103.012C231.012 103.2 231.024 103.398 230.994 103.592C230.964 103.785 230.893 103.97 230.785 104.133C230.677 104.296 230.536 104.435 230.37 104.538C230.204 104.642 230.018 104.708 229.824 104.733Z" fill="#6C63FF"/>
<path d="M227.906 85.7877C232.006 85.7877 235.33 82.4586 235.33 78.3519C235.33 74.2452 232.006 70.9161 227.906 70.9161C223.805 70.9161 220.481 74.2452 220.481 78.3519C220.481 82.4586 223.805 85.7877 227.906 85.7877Z" fill="#FFB8B8"/>
<path d="M227.515 78.973L226.585 77.2777C224.825 84.4626 227.935 90.4088 227.935 90.4088L215.863 84.7774L215.978 82.7793L214.784 84.1368L213.068 83.1896L212.841 81.8937L211.546 82.215L216.274 73.6209C220.864 65.4427 227.536 68.5651 227.536 68.5651C238.152 68.0597 236.855 78.5483 236.855 78.5483L227.515 78.973Z" fill="#2F2E41"/>
<path d="M142.997 134.385C144.709 133.286 142.627 126.975 138.347 120.289C134.068 113.603 129.21 109.073 127.498 110.172C125.787 111.272 127.868 117.583 132.148 124.269C136.428 130.955 141.285 135.484 142.997 134.385Z" fill="#3F3D56"/>
</g>
<defs>
<clipPath id="clip0_85_46">
<rect width="297" height="231" fill="white"/>
</clipPath>
</defs>
</svg>
