<svg width="355" height="220" viewBox="0 0 355 220" fill="none" xmlns="http://www.w3.org/2000/svg">
<g clip-path="url(#clip0_86_156)">
<path d="M94.94 55.1116H50.8086V55.7454H94.94V55.1116Z" fill="#F2F2F2"/>
<path d="M63.4176 49.4073H62.7871V55.27H63.4176V49.4073Z" fill="#F2F2F2"/>
<path d="M82.6462 49.4073H82.0157V55.27H82.6462V49.4073Z" fill="#F2F2F2"/>
<path d="M79.8093 23.4215H35.6779V24.0553H79.8093V23.4215Z" fill="#F2F2F2"/>
<path d="M67.8308 23.8969H67.2003V29.7595H67.8308V23.8969Z" fill="#F2F2F2"/>
<path d="M48.602 23.8969H47.9716V29.7595H48.602V23.8969Z" fill="#F2F2F2"/>
<path d="M149.789 67.7877H105.658V68.4215H149.789V67.7877Z" fill="#F2F2F2"/>
<path d="M118.267 62.0835H117.636V67.9462H118.267V62.0835Z" fill="#F2F2F2"/>
<path d="M137.495 62.0835H136.865V67.9462H137.495V62.0835Z" fill="#F2F2F2"/>
<path d="M134.658 36.0975H90.5269V36.7313H134.658V36.0975Z" fill="#F2F2F2"/>
<path d="M122.68 36.5729H122.049V42.4356H122.68V36.5729Z" fill="#F2F2F2"/>
<path d="M103.451 36.5729H102.821V42.4356H103.451V36.5729Z" fill="#F2F2F2"/>
<path d="M132.452 175.534H88.3203V176.168H132.452V175.534Z" fill="#F2F2F2"/>
<path d="M100.929 169.83H100.299V175.693H100.929V169.83Z" fill="#F2F2F2"/>
<path d="M120.158 169.83H119.527V175.693H120.158V169.83Z" fill="#F2F2F2"/>
<path d="M117.321 143.844H73.1895V144.478H117.321V143.844Z" fill="#F2F2F2"/>
<path d="M105.342 144.319H104.712V150.182H105.342V144.319Z" fill="#F2F2F2"/>
<path d="M86.1137 144.319H85.4833V150.182H86.1137V144.319Z" fill="#F2F2F2"/>
<path d="M112.277 107.083H68.146V107.717H112.277V107.083Z" fill="#F2F2F2"/>
<path d="M80.755 101.379H80.1245V107.242H80.755V101.379Z" fill="#F2F2F2"/>
<path d="M99.9836 101.379H99.3531V107.242H99.9836V101.379Z" fill="#F2F2F2"/>
<path d="M97.1465 75.3933H53.0151V76.0271H97.1465V75.3933Z" fill="#F2F2F2"/>
<path d="M85.168 75.8687H84.5376V81.7313H85.168V75.8687Z" fill="#F2F2F2"/>
<path d="M65.9394 75.8687H65.309V81.7313H65.9394V75.8687Z" fill="#F2F2F2"/>
<path d="M80.4396 155.252H36.3082V155.886H80.4396V155.252Z" fill="#F2F2F2"/>
<path d="M48.9173 149.548H48.2869V155.411H48.9173V149.548Z" fill="#F2F2F2"/>
<path d="M68.146 149.548H67.5155V155.411H68.146V149.548Z" fill="#F2F2F2"/>
<path d="M65.3089 123.562H21.1775V124.196H65.3089V123.562Z" fill="#F2F2F2"/>
<path d="M53.3304 124.038H52.7V129.9H53.3304V124.038Z" fill="#F2F2F2"/>
<path d="M34.1018 124.038H33.4713V129.9H34.1018V124.038Z" fill="#F2F2F2"/>
<path d="M300.151 55.1116H256.02V55.7454H300.151V55.1116Z" fill="#F2F2F2"/>
<path d="M268.628 49.4073H267.998V55.27H268.628V49.4073Z" fill="#F2F2F2"/>
<path d="M287.857 49.4073H287.227V55.27H287.857V49.4073Z" fill="#F2F2F2"/>
<path d="M285.02 23.4215H240.889V24.0553H285.02V23.4215Z" fill="#F2F2F2"/>
<path d="M273.042 23.8969H272.411V29.7595H273.042V23.8969Z" fill="#F2F2F2"/>
<path d="M253.813 23.8969H253.183V29.7595H253.813V23.8969Z" fill="#F2F2F2"/>
<path d="M355 67.7877H310.869V68.4215H355V67.7877Z" fill="#F2F2F2"/>
<path d="M323.478 62.0835H322.847V67.9462H323.478V62.0835Z" fill="#F2F2F2"/>
<path d="M342.706 62.0835H342.076V67.9462H342.706V62.0835Z" fill="#F2F2F2"/>
<path d="M339.869 36.0975H295.738V36.7313H339.869V36.0975Z" fill="#F2F2F2"/>
<path d="M327.891 36.5729H327.26V42.4356H327.891V36.5729Z" fill="#F2F2F2"/>
<path d="M308.662 36.5729H308.032V42.4356H308.662V36.5729Z" fill="#F2F2F2"/>
<path d="M337.663 175.534H293.531V176.168H337.663V175.534Z" fill="#F2F2F2"/>
<path d="M306.14 169.83H305.51V175.693H306.14V169.83Z" fill="#F2F2F2"/>
<path d="M325.369 169.83H324.739V175.693H325.369V169.83Z" fill="#F2F2F2"/>
<path d="M322.532 143.844H278.4V144.478H322.532V143.844Z" fill="#F2F2F2"/>
<path d="M310.553 144.319H309.923V150.182H310.553V144.319Z" fill="#F2F2F2"/>
<path d="M291.325 144.319H290.694V150.182H291.325V144.319Z" fill="#F2F2F2"/>
<path d="M317.488 107.083H273.357V107.717H317.488V107.083Z" fill="#F2F2F2"/>
<path d="M285.966 101.379H285.335V107.242H285.966V101.379Z" fill="#F2F2F2"/>
<path d="M305.194 101.379H304.564V107.242H305.194V101.379Z" fill="#F2F2F2"/>
<path d="M302.357 75.3933H258.226V76.0271H302.357V75.3933Z" fill="#F2F2F2"/>
<path d="M290.379 75.8687H289.749V81.7313H290.379V75.8687Z" fill="#F2F2F2"/>
<path d="M271.15 75.8687H270.52V81.7313H271.15V75.8687Z" fill="#F2F2F2"/>
<path d="M285.651 155.252H241.519V155.886H285.651V155.252Z" fill="#F2F2F2"/>
<path d="M254.128 149.548H253.498V155.411H254.128V149.548Z" fill="#F2F2F2"/>
<path d="M273.357 149.548H272.727V155.411H273.357V149.548Z" fill="#F2F2F2"/>
<path d="M270.52 123.562H226.389V124.196H270.52V123.562Z" fill="#F2F2F2"/>
<path d="M258.541 124.038H257.911V129.9H258.541V124.038Z" fill="#F2F2F2"/>
<path d="M239.313 124.038H238.682V129.9H239.313V124.038Z" fill="#F2F2F2"/>
<path d="M175.717 0H114.406V87.4648H175.717V0Z" fill="#3F3D56"/>
<path d="M254.365 104.894H193.054V192.359H254.365V104.894Z" fill="#3F3D56"/>
<path d="M254.365 0H193.054V87.4648H254.365V0Z" fill="#3F3D56"/>
<path d="M175.717 104.894H114.406V192.359H175.717V104.894Z" fill="#3F3D56"/>
<path d="M333.802 192.084H30.0801V192.794H333.802V192.084Z" fill="#2F2E41"/>
<path d="M35.9147 187.289H32.4473V216.761C32.4473 216.761 54.8282 224.049 76.5787 216.761V187.289H35.9147Z" fill="#3F3D56"/>
<path d="M54.1977 190.775C66.2102 190.775 75.9482 189.285 75.9482 187.447C75.9482 185.61 66.2102 184.12 54.1977 184.12C42.1853 184.12 32.4473 185.61 32.4473 187.447C32.4473 189.285 42.1853 190.775 54.1977 190.775Z" fill="#3F3D56"/>
<path opacity="0.1" d="M54.1977 190.775C66.2102 190.775 75.9482 189.285 75.9482 187.447C75.9482 185.61 66.2102 184.12 54.1977 184.12C42.1853 184.12 32.4473 185.61 32.4473 187.447C32.4473 189.285 42.1853 190.775 54.1977 190.775Z" fill="black"/>
<path d="M79.4813 152.077C73.9944 172.467 55.2004 185.096 55.2004 185.096C55.2004 185.096 45.3025 164.664 50.7894 144.274C56.2763 123.883 75.0703 111.254 75.0703 111.254C75.0703 111.254 84.9682 131.686 79.4813 152.077Z" fill="#3F3D56"/>
<path d="M29.5655 152.077C35.0525 172.467 53.8464 185.096 53.8464 185.096C53.8464 185.096 63.7443 164.664 58.2574 144.274C52.7705 123.883 33.9765 111.254 33.9765 111.254C33.9765 111.254 24.0786 131.686 29.5655 152.077Z" fill="#6C63FF"/>
<path d="M37.6282 147.694C52.6844 162.429 54.5234 185.08 54.5234 185.08C54.5234 185.08 31.9514 183.841 16.8952 169.106C1.83902 154.371 0 131.721 0 131.721C0 131.721 22.5719 132.96 37.6282 147.694Z" fill="#3F3D56"/>
<path d="M71.4187 147.694C56.3624 162.429 54.5234 185.08 54.5234 185.08C54.5234 185.08 77.0954 183.841 92.1516 169.106C107.208 154.371 109.047 131.721 109.047 131.721C109.047 131.721 86.4749 132.96 71.4187 147.694Z" fill="#3F3D56"/>
<path d="M54.5129 118.204C58.343 118.204 61.4479 115.083 61.4479 111.232C61.4479 107.382 58.343 104.261 54.5129 104.261C50.6829 104.261 47.578 107.382 47.578 111.232C47.578 115.083 50.6829 118.204 54.5129 118.204Z" fill="#6C63FF"/>
<path d="M138.678 47.8521C139.2 47.8521 139.624 47.4264 139.624 46.9014C139.624 46.3763 139.2 45.9507 138.678 45.9507C138.156 45.9507 137.732 46.3763 137.732 46.9014C137.732 47.4264 138.156 47.8521 138.678 47.8521Z" fill="white"/>
<path d="M134.265 35.4929C140.358 35.4929 145.298 30.5271 145.298 24.4014C145.298 18.2757 140.358 13.3098 134.265 13.3098C128.171 13.3098 123.232 18.2757 123.232 24.4014C123.232 30.5271 128.171 35.4929 134.265 35.4929Z" fill="white"/>
<path d="M151.917 39.9296C152.091 39.9296 152.232 39.7877 152.232 39.6127C152.232 39.4377 152.091 39.2958 151.917 39.2958C151.743 39.2958 151.602 39.4377 151.602 39.6127C151.602 39.7877 151.743 39.9296 151.917 39.9296Z" fill="white"/>
<path d="M207.397 55.7747C207.571 55.7747 207.712 55.6328 207.712 55.4578C207.712 55.2828 207.571 55.1409 207.397 55.1409C207.223 55.1409 207.082 55.2828 207.082 55.4578C207.082 55.6328 207.223 55.7747 207.397 55.7747Z" fill="white"/>
<path d="M203.929 150.528C204.103 150.528 204.244 150.386 204.244 150.211C204.244 150.036 204.103 149.894 203.929 149.894C203.755 149.894 203.614 150.036 203.614 150.211C203.614 150.386 203.755 150.528 203.929 150.528Z" fill="white"/>
<path d="M137.417 172.394C137.591 172.394 137.732 172.252 137.732 172.077C137.732 171.902 137.591 171.76 137.417 171.76C137.243 171.76 137.102 171.902 137.102 172.077C137.102 172.252 137.243 172.394 137.417 172.394Z" fill="white"/>
<path d="M230.408 66.8662C230.582 66.8662 230.723 66.7243 230.723 66.5493C230.723 66.3743 230.582 66.2324 230.408 66.2324C230.234 66.2324 230.093 66.3743 230.093 66.5493C230.093 66.7243 230.234 66.8662 230.408 66.8662Z" fill="white"/>
<path d="M227.256 40.2465C227.43 40.2465 227.571 40.1046 227.571 39.9296C227.571 39.7546 227.43 39.6127 227.256 39.6127C227.082 39.6127 226.941 39.7546 226.941 39.9296C226.941 40.1046 227.082 40.2465 227.256 40.2465Z" fill="white"/>
<path d="M216.538 125.81C216.712 125.81 216.853 125.668 216.853 125.493C216.853 125.318 216.712 125.176 216.538 125.176C216.364 125.176 216.223 125.318 216.223 125.493C216.223 125.668 216.364 125.81 216.538 125.81Z" fill="white"/>
<path d="M199.516 78.2747C199.69 78.2747 199.831 78.1328 199.831 77.9578C199.831 77.7828 199.69 77.6409 199.516 77.6409C199.342 77.6409 199.201 77.7828 199.201 77.9578C199.201 78.1328 199.342 78.2747 199.516 78.2747Z" fill="white"/>
<path d="M202.038 33.5916C202.212 33.5916 202.353 33.4497 202.353 33.2747C202.353 33.0996 202.212 32.9578 202.038 32.9578C201.864 32.9578 201.723 33.0996 201.723 33.2747C201.723 33.4497 201.864 33.5916 202.038 33.5916Z" fill="white"/>
<path d="M230.723 15.5282C230.897 15.5282 231.039 15.3863 231.039 15.2113C231.039 15.0363 230.897 14.8944 230.723 14.8944C230.549 14.8944 230.408 15.0363 230.408 15.2113C230.408 15.3863 230.549 15.5282 230.723 15.5282Z" fill="white"/>
<path d="M138.047 143.873C138.221 143.873 138.363 143.731 138.363 143.556C138.363 143.381 138.221 143.24 138.047 143.24C137.873 143.24 137.732 143.381 137.732 143.556C137.732 143.731 137.873 143.873 138.047 143.873Z" fill="white"/>
<path d="M165.157 167.958C165.331 167.958 165.472 167.816 165.472 167.641C165.472 167.466 165.331 167.324 165.157 167.324C164.983 167.324 164.841 167.466 164.841 167.641C164.841 167.816 164.983 167.958 165.157 167.958Z" fill="white"/>
<path d="M130.482 120.106C130.656 120.106 130.797 119.964 130.797 119.789C130.797 119.614 130.656 119.472 130.482 119.472C130.308 119.472 130.167 119.614 130.167 119.789C130.167 119.964 130.308 120.106 130.482 120.106Z" fill="white"/>
<path d="M138.363 78.2747C138.537 78.2747 138.678 78.1328 138.678 77.9578C138.678 77.7828 138.537 77.6409 138.363 77.6409C138.188 77.6409 138.047 77.7828 138.047 77.9578C138.047 78.1328 138.188 78.2747 138.363 78.2747Z" fill="white"/>
<path opacity="0.1" d="M138.363 78.2746L175.717 62.0905V66.375L138.363 78.2746Z" fill="white"/>
<path opacity="0.1" d="M254.365 28.0172V41.3176L193.054 60.8514V54.5799L254.365 28.0172Z" fill="white"/>
<path opacity="0.1" d="M156.658 125.17L175.717 114.614V116.081C165.059 121.269 157.03 124.999 156.658 125.17Z" fill="white"/>
<path opacity="0.1" d="M193.268 104.894H198.076C196.408 105.76 194.734 106.618 193.054 107.471V105.015L193.268 104.894Z" fill="white"/>
<path opacity="0.1" d="M231.039 83.9789C230.894 84.8187 229.793 86.0102 227.962 87.4648H224.744L231.039 83.9789Z" fill="white"/>
<path opacity="0.1" d="M254.365 140.818V143.056C237.999 151.266 223.048 158.21 222.54 158.444L254.365 140.818Z" fill="white"/>
<path d="M217.484 143.933C217.484 143.304 217.304 142.689 216.967 142.159C216.63 141.63 216.149 141.209 215.581 140.945L215.682 139.651H208.639L209.458 148.049H215.027L215.101 147.099C215.787 146.904 216.391 146.489 216.821 145.917C217.251 145.346 217.484 144.649 217.484 143.933ZM215.14 146.598L215.53 141.598C215.868 141.933 216.13 142.339 216.296 142.786C216.462 143.234 216.528 143.713 216.491 144.189C216.454 144.665 216.314 145.127 216.08 145.543C215.847 145.96 215.526 146.319 215.14 146.598Z" fill="#6C63FF"/>
<path d="M209.89 137.097C209.89 137.097 218.218 143.077 215.442 145.47C212.666 147.862 207.114 138.293 207.114 138.293L209.89 137.097Z" fill="#FFB9B9"/>
<path d="M171.422 146.267C171.422 146.267 173.008 166.202 173.405 168.993C173.801 171.783 174.198 196.901 174.991 199.692C175.784 202.483 176.577 209.261 176.577 209.261H181.336C181.336 209.261 180.94 196.901 182.129 192.117C183.319 187.332 182.923 174.176 182.923 174.176C182.923 174.176 185.302 150.653 184.112 147.463C182.923 144.274 171.422 146.267 171.422 146.267Z" fill="#FFB9B9"/>
<path d="M177.767 208.064C177.767 208.064 175.784 209.261 175.784 210.058C175.784 210.855 176.181 212.849 175.784 213.646C175.387 214.444 172.611 217.633 174.198 218.43C175.784 219.228 182.922 218.43 182.922 218.43C182.922 218.43 182.526 212.849 182.129 212.45C181.733 212.051 182.526 208.064 182.526 208.064H177.767Z" fill="#2F2E41"/>
<path d="M201.738 145.778C201.738 145.778 202.242 165.77 202.139 168.588C202.036 171.405 204.264 196.426 203.767 199.285C203.269 202.144 203.188 208.968 203.188 208.968L198.455 209.47C198.455 209.47 197.559 197.137 195.877 192.505C194.194 187.872 193.215 174.746 193.215 174.746C193.215 174.746 188.392 151.605 189.242 148.307C190.093 145.01 201.738 145.778 201.738 145.778Z" fill="#FFB9B9"/>
<path d="M201.88 207.904C201.88 207.904 203.977 208.884 204.06 209.677C204.143 210.47 203.957 212.495 204.435 213.246C204.912 213.997 208.006 216.876 206.512 217.836C205.018 218.797 197.835 218.757 197.835 218.757C197.835 218.757 197.647 213.164 198 212.726C198.352 212.287 197.147 208.406 197.147 208.406L201.88 207.904Z" fill="#2F2E41"/>
<path d="M176.974 116.365C176.974 116.365 173.801 116.764 172.611 123.541C171.422 130.319 167.059 147.463 170.628 148.659C174.198 149.855 184.905 152.247 185.302 151.45C185.699 150.653 186.492 148.659 186.492 148.659C186.492 148.659 185.302 152.247 186.888 152.247C188.475 152.247 203.941 149.855 203.545 148.659C203.148 147.463 202.355 138.692 202.355 138.692C202.355 138.692 199.976 123.94 197.596 121.548C196.907 120.883 196.373 120.074 196.03 119.179C195.687 118.283 195.545 117.322 195.613 116.365H176.974Z" fill="#2F2E41"/>
<path d="M171.025 113.175C171.025 113.175 176.181 111.979 176.974 113.574C177.767 115.169 174.991 117.561 173.801 117.561C172.611 117.561 170.628 116.365 170.628 116.365L171.025 113.175Z" fill="#FFB9B9"/>
<path d="M189.277 78.7635C193.22 78.7635 196.416 75.5505 196.416 71.587C196.416 67.6235 193.22 64.4105 189.277 64.4105C185.335 64.4105 182.139 67.6235 182.139 71.587C182.139 75.5505 185.335 78.7635 189.277 78.7635Z" fill="#FFB9B9"/>
<path d="M184.964 76.504C184.964 76.504 184.112 82.8748 183.319 82.8748C182.526 82.8748 189.268 86.463 189.268 86.463L194.423 85.6657L196.01 83.2735C196.01 83.2735 193.55 79.432 193.55 76.2425C193.55 73.0529 184.964 76.504 184.964 76.504Z" fill="#FFB9B9"/>
<path d="M186.492 82.8748C186.492 82.8748 185.302 82.0774 184.905 82.0774H181.733C181.336 82.0774 176.181 83.2735 176.181 83.2735L173.008 101.215C173.008 101.215 178.56 110.385 174.594 117.561C174.594 117.561 175.784 116.764 181.336 117.162C186.888 117.561 196.803 118.757 197.2 118.757C197.596 118.757 197.596 115.568 197.2 114.77C196.803 113.973 197.596 114.372 197.596 112.378C197.596 110.385 198.786 106.796 198.786 106.796L204.338 86.463C204.338 86.463 197.2 82.4761 196.01 82.8748C194.82 83.2735 191.251 84.4695 190.458 84.0709C189.664 83.6722 186.492 82.8748 186.492 82.8748Z" fill="#6C63FF"/>
<path d="M177.37 83.6722L176.181 83.2735C176.181 83.2735 173.801 82.8748 171.025 85.2669C168.249 87.6591 157.938 94.8356 157.938 94.8356C157.938 94.8356 153.972 98.0251 155.162 101.613C156.351 105.202 158.334 113.973 164.283 113.574C164.283 113.574 167.852 118.358 169.835 117.561C171.818 116.764 173.404 113.574 172.215 113.175C171.025 112.777 167.852 108.79 167.852 108.79L171.818 101.215H173.008L177.37 98.8225L177.37 83.6722Z" fill="#6C63FF"/>
<path d="M201.165 86.0643L204.338 86.463C204.338 86.463 207.114 87.6591 206.717 92.8421C206.321 98.0251 209.097 121.548 207.907 124.339C207.907 124.339 211.873 137.894 211.08 138.293C210.287 138.692 205.528 141.084 205.924 139.489C206.321 137.894 201.562 126.731 201.562 126.731C201.562 126.731 196.01 120.751 198.389 112.378V105.6L201.165 86.0643Z" fill="#6C63FF"/>
<path d="M207.786 78.0308C206.901 76.7729 205.813 75.6737 204.879 74.4521C202.726 71.6355 201.981 67.8826 199.093 65.7227C196.234 63.5855 191.698 61.4819 188.121 61.6505C183.406 61.8726 179.667 65.5493 176.417 68.9898C173.933 71.6189 171.45 74.2481 168.966 76.8772C167.17 78.7792 165.307 80.7985 164.659 83.3394C164.037 85.7815 164.644 88.405 165.784 90.6506C166.968 92.9286 168.628 94.9217 170.652 96.4928C173.146 93.0404 176.64 88.2733 176.64 88.2733L177.453 100.131C181.678 101.539 186.217 101.815 190.67 101.504L191.989 96.6426L193.373 101.235C198.694 100.526 204.04 98.6787 207.334 94.5043C210.975 89.8892 211.169 82.8408 207.786 78.0308Z" fill="#2F2E41"/>
<path d="M178.072 76.8334C177.336 73.1186 178.131 69.2699 180.603 66.3225C185.169 60.8772 193.719 60.5714 199.698 65.6393C202.084 67.639 203.796 70.3318 204.599 73.3483C203.912 70.0093 202.118 67.0035 199.51 64.8233C193.531 59.7554 184.982 60.0612 180.415 65.5065C177.762 68.6705 177.041 72.8729 178.072 76.8334Z" fill="#2F2E41"/>
<path d="M164.023 94.3566C163.288 90.6418 164.083 86.7931 166.554 83.8457C171.121 78.4004 179.67 78.0945 185.649 83.1625C188.035 85.1622 189.747 87.855 190.551 90.8715C189.864 87.5324 188.07 84.5267 185.462 82.3465C179.483 77.2786 170.934 77.5844 166.367 83.0297C163.714 86.1937 162.992 90.3961 164.023 94.3566Z" fill="#2F2E41"/>
<path d="M195.884 74.8413C199.633 74.4704 203.365 75.6442 206.04 78.4069C210.981 83.511 210.443 92.094 204.839 97.5777C202.625 99.768 199.791 101.216 196.726 101.723C200.099 101.365 203.25 99.8651 205.665 97.4705C211.269 91.9869 211.807 83.4038 206.866 78.2997C203.995 75.334 199.906 74.1991 195.884 74.8413Z" fill="#2F2E41"/>
<path opacity="0.1" d="M213.618 125.621C213.254 125.536 212.872 125.564 212.523 125.702C212.175 125.84 211.876 126.08 211.667 126.392C211.519 126.633 211.412 126.897 211.352 127.174C211.179 127.93 211.213 128.72 211.452 129.458C211.69 130.197 212.124 130.856 212.706 131.366C213.012 131.592 213.302 131.839 213.573 132.105C213.825 132.411 213.999 132.774 214.082 133.162C214.165 133.55 214.154 133.952 214.05 134.335C213.832 135.103 213.376 135.78 212.75 136.269C212.619 136.359 212.51 136.476 212.43 136.614C212.217 137.072 212.766 137.509 212.906 137.995" fill="white"/>
</g>
<defs>
<clipPath id="clip0_86_156">
<rect width="355" height="220" fill="white"/>
</clipPath>
</defs>
</svg>
